<svg width="27" height="33" viewBox="0 0 27 33" fill="none" xmlns="http://www.w3.org/2000/svg">
<path d="M6.5625 6.5625C6.5625 4.82202 7.2539 3.15282 8.48461 1.92211C9.71532 0.691404 11.3845 0 13.125 0C14.8655 0 16.5347 0.691404 17.7654 1.92211C18.9961 3.15282 19.6875 4.82202 19.6875 6.5625C19.6875 8.30298 18.9961 9.97218 17.7654 11.2029C16.5347 12.4336 14.8655 13.125 13.125 13.125C11.3845 13.125 9.71532 12.4336 8.48461 11.2029C7.2539 9.97218 6.5625 8.30298 6.5625 6.5625ZM13.125 3.28125C12.2548 3.28125 11.4202 3.62695 10.8048 4.24231C10.1895 4.85766 9.84375 5.69226 9.84375 6.5625C9.84375 7.43274 10.1895 8.26734 10.8048 8.88269C11.4202 9.49805 12.2548 9.84375 13.125 9.84375C13.9952 9.84375 14.8298 9.49805 15.4452 8.88269C16.0605 8.26734 16.4062 7.43274 16.4062 6.5625C16.4062 5.69226 16.0605 4.85766 15.4452 4.24231C14.8298 3.62695 13.9952 3.28125 13.125 3.28125ZM4.92188 16.4063H21.3281C22.6335 16.4063 23.8854 16.9248 24.8084 17.8478C25.7314 18.7709 26.25 20.0228 26.25 21.3281C26.25 24.99 24.7439 27.9234 22.2731 29.9086C19.8417 31.8609 16.5802 32.8125 13.125 32.8125C9.66984 32.8125 6.40828 31.8609 3.97687 29.9086C1.50937 27.9234 0 24.99 0 21.3281C0 20.0228 0.518553 18.7709 1.44158 17.8478C2.36461 16.9248 3.61651 16.4063 4.92188 16.4063ZM21.3281 19.6875H4.92188C4.48675 19.6875 4.06946 19.8604 3.76178 20.168C3.4541 20.4757 3.28125 20.893 3.28125 21.3281C3.28125 24.0089 4.34766 25.9973 6.03094 27.3492C7.75688 28.7339 10.2375 29.5313 13.125 29.5313C16.0125 29.5313 18.4931 28.7339 20.2191 27.3492C21.9023 25.9973 22.9688 24.0089 22.9688 21.3281C22.9688 20.893 22.7959 20.4757 22.4882 20.168C22.1805 19.8604 21.7632 19.6875 21.3281 19.6875Z" fill="#383838"/>
</svg>
