<svg width="29" height="29" viewBox="0 0 29 29" fill="none" xmlns="http://www.w3.org/2000/svg">
<path d="M14.125 1L10.1875 4.9375H4.9375V10.1875L1 14.125L4.9375 18.0625V23.3125H10.1875L14.125 27.25L18.0625 23.3125H23.3125V18.0625L27.25 14.125L23.3125 10.1875V4.9375H18.0625L14.125 1Z" stroke="#383838" stroke-width="2" stroke-linejoin="round"/>
<path d="M14.125 18.0625C15.1693 18.0625 16.1708 17.6477 16.9092 16.9092C17.6477 16.1708 18.0625 15.1693 18.0625 14.125C18.0625 13.0807 17.6477 12.0792 16.9092 11.3408C16.1708 10.6023 15.1693 10.1875 14.125 10.1875C13.0807 10.1875 12.0792 10.6023 11.3408 11.3408C10.6023 12.0792 10.1875 13.0807 10.1875 14.125C10.1875 15.1693 10.6023 16.1708 11.3408 16.9092C12.0792 17.6477 13.0807 18.0625 14.125 18.0625Z" stroke="#383838" stroke-width="2" stroke-linejoin="round"/>
</svg>
