<svg width="27" height="27" viewBox="0 0 27 27" fill="none" xmlns="http://www.w3.org/2000/svg">
<path d="M13.125 17.0625C13.4969 17.0625 13.8088 16.9365 14.0608 16.6845C14.3128 16.4325 14.4384 16.121 14.4375 15.75C14.4375 15.3781 14.3115 15.0666 14.0595 14.8155C13.8075 14.5644 13.496 14.4384 13.125 14.4375C12.7531 14.4375 12.4416 14.5635 12.1905 14.8155C11.9394 15.0675 11.8134 15.379 11.8125 15.75C11.8125 16.1219 11.9385 16.4338 12.1905 16.6858C12.4425 16.9378 12.754 17.0634 13.125 17.0625ZM11.8125 11.8125H14.4375V3.9375H11.8125V11.8125ZM0 26.25V2.625C0 1.90312 0.25725 1.28537 0.77175 0.77175C1.28625 0.258125 1.904 0.000875 2.625 0H23.625C24.3469 0 24.9651 0.25725 25.4796 0.77175C25.9941 1.28625 26.2509 1.904 26.25 2.625V18.375C26.25 19.0969 25.9932 19.7151 25.4796 20.2296C24.9659 20.7441 24.3477 21.0009 23.625 21H5.25L0 26.25ZM4.13437 18.375H23.625V2.625H2.625V19.8516L4.13437 18.375Z" fill="#383838"/>
</svg>
