<svg width="27" height="21" viewBox="0 0 27 21" fill="none" xmlns="http://www.w3.org/2000/svg">
<path d="M22.4844 21H4.76562C3.67607 21.0001 2.62779 20.5832 1.83582 19.8349C1.04386 19.0867 0.568248 18.0637 0.506563 16.9759L0.5 16.7344V2.95312C0.499908 2.20483 0.783888 1.48441 1.29455 0.937449C1.80521 0.390488 2.50446 0.057779 3.251 0.00656267L3.45312 2.23108e-08H19.8594C20.6077 -9.19037e-05 21.3281 0.283888 21.8751 0.794547C22.422 1.30521 22.7547 2.00446 22.8059 2.751L22.8125 2.95312V3.9375H23.7969C24.5452 3.93741 25.2656 4.22139 25.8126 4.73205C26.3595 5.24271 26.6922 5.94196 26.7434 6.6885L26.75 6.89062V16.7344C26.7501 17.8239 26.3332 18.8722 25.5849 19.6642C24.8367 20.4561 23.8137 20.9318 22.7259 20.9934L22.4844 21ZM4.76562 19.0312H22.4844C23.061 19.0312 23.6166 18.8143 24.0406 18.4235C24.4647 18.0327 24.7263 17.4968 24.7734 16.9221L24.7812 16.7344V6.89062C24.7812 6.65275 24.6951 6.42293 24.5387 6.24365C24.3824 6.06438 24.1664 5.94779 23.9307 5.91544L23.7969 5.90625H22.8125V16.0781C22.8125 16.316 22.7263 16.5458 22.57 16.7251C22.4136 16.9044 22.1977 17.021 21.962 17.0533L21.8281 17.0625C21.5903 17.0625 21.3604 16.9763 21.1812 16.82C21.0019 16.6636 20.8853 16.4477 20.8529 16.212L20.8438 16.0781V2.95312C20.8437 2.71525 20.7576 2.48543 20.6012 2.30615C20.4449 2.12688 20.2289 2.01029 19.9932 1.97794L19.8594 1.96875H3.45312C3.21525 1.96876 2.98543 2.05491 2.80615 2.21126C2.62688 2.36761 2.51029 2.58359 2.47794 2.81925L2.46875 2.95312V16.7344C2.46877 17.3108 2.68554 17.8662 3.07602 18.2902C3.4665 18.7142 4.00214 18.9759 4.57662 19.0234L4.76562 19.0312ZM13.9479 13.7812H17.8932C18.1427 13.7813 18.3827 13.8761 18.565 14.0463C18.7472 14.2166 18.858 14.4497 18.875 14.6985C18.892 14.9474 18.8139 15.1934 18.6566 15.3868C18.4992 15.5803 18.2742 15.7068 18.0271 15.7408L17.8932 15.75H13.9479C13.6985 15.7499 13.4584 15.6552 13.2761 15.4849C13.0939 15.3146 12.9831 15.0815 12.9661 14.8327C12.9491 14.5839 13.0272 14.3379 13.1846 14.1444C13.342 13.9509 13.5669 13.8244 13.814 13.7904L13.9479 13.7812ZM10.0064 9.19406C10.2675 9.19406 10.5179 9.29777 10.7025 9.48238C10.8871 9.66698 10.9908 9.91737 10.9908 10.1784V14.7656C10.9908 15.0267 10.8871 15.2771 10.7025 15.4617C10.5179 15.6463 10.2675 15.75 10.0064 15.75H5.41925C5.15818 15.75 4.9078 15.6463 4.72319 15.4617C4.53859 15.2771 4.43488 15.0267 4.43488 14.7656V10.1784C4.43488 9.91737 4.53859 9.66698 4.72319 9.48238C4.9078 9.29777 5.15818 9.19406 5.41925 9.19406H10.0064ZM9.02206 11.1628H6.40363V13.7812H9.02206V11.1628ZM13.9479 9.19406H17.8932C18.1427 9.19414 18.3827 9.28888 18.565 9.45915C18.7472 9.62942 18.858 9.86252 18.875 10.1113C18.892 10.3602 18.8139 10.6062 18.6566 10.7996C18.4992 10.9931 18.2742 11.1196 18.0271 11.1536L17.8932 11.1628H13.9479C13.6967 11.1654 13.454 11.0718 13.2696 10.9013C13.0852 10.7307 12.9729 10.4962 12.9558 10.2455C12.9387 9.99493 13.018 9.74726 13.1776 9.55324C13.3371 9.35923 13.5648 9.23355 13.814 9.20194L13.9479 9.19406ZM5.41925 4.59637H17.8932C18.1444 4.59382 18.3871 4.68739 18.5715 4.85792C18.756 5.02845 18.8682 5.26304 18.8853 5.51365C18.9025 5.76426 18.8231 6.01193 18.6636 6.20595C18.504 6.39996 18.2763 6.52564 18.0271 6.55725L17.8932 6.56512H5.41925C5.16984 6.56505 4.92977 6.4703 4.74752 6.30004C4.56528 6.12977 4.45447 5.89667 4.43747 5.64784C4.42047 5.39902 4.49855 5.15302 4.65594 4.95955C4.81333 4.76607 5.0383 4.63956 5.28537 4.60556L5.41925 4.59637Z" fill="#383838"/>
</svg>
