<svg width="27" height="37" viewBox="0 0 27 37" fill="none" xmlns="http://www.w3.org/2000/svg">
<path fill-rule="evenodd" clip-rule="evenodd" d="M6.01885 6.01884C6.51113 5.52656 7.17881 5.25 7.875 5.25H18.375C19.0712 5.25 19.7389 5.52656 20.2312 6.01884C20.7234 6.51113 21 7.17881 21 7.875V10.5C21 11.1962 20.7234 11.8639 20.2312 12.3562C19.7389 12.8484 19.0712 13.125 18.375 13.125H7.875C7.17881 13.125 6.51113 12.8484 6.01885 12.3562C5.52656 11.8639 5.25 11.1962 5.25 10.5V7.875C5.25 7.17881 5.52656 6.51113 6.01885 6.01884ZM18.375 7.875H7.875V10.5H18.375V7.875ZM5.25 0H21C22.3924 0 23.7277 0.553123 24.7123 1.53769C25.6969 2.52226 26.25 3.85761 26.25 5.25V26.3333C25.5418 25.4095 24.6483 24.6353 23.625 24.0662V5.25C23.625 4.55381 23.3484 3.88613 22.8562 3.39384C22.3639 2.90156 21.6962 2.625 21 2.625H5.25C4.55381 2.625 3.88613 2.90156 3.39385 3.39384C2.90156 3.88613 2.625 4.55381 2.625 5.25V28.8671H11.4156C11.1466 29.6937 11.0008 30.576 11 31.4921H2.625V31.5C2.625 32.1962 2.90156 32.8639 3.39385 33.3562C3.88613 33.8484 4.55381 34.125 5.25 34.125H11.4131C11.7249 35.0865 12.2035 35.9728 12.8147 36.75H5.25C3.85761 36.75 2.52226 36.1969 1.53769 35.2123C0.553123 34.2277 0 32.8924 0 31.5V5.25C0 3.85761 0.553123 2.52226 1.53769 1.53769C2.52226 0.553123 3.85761 0 5.25 0Z" fill="#383838"/>
<path d="M27 28.3333L23.6667 25V27.5H17.8333V29.1667H23.6667V31.6667M15.3333 30L12 33.3333L15.3333 36.6667V34.1667H21.1667V32.5H15.3333V30Z" fill="#383838"/>
</svg>
