<svg width="30" height="31" viewBox="0 0 30 31" fill="none" xmlns="http://www.w3.org/2000/svg">
<path d="M28.6364 2.79469e-05H19.0909C18.3102 -0.00317051 17.5532 0.268266 16.9524 0.766842C16.3517 1.26542 15.9453 1.95938 15.8045 2.7273L14.55 9.61366C14.4633 10.0934 14.4831 10.5864 14.608 11.0577C14.7329 11.529 14.9598 11.9671 15.2727 12.3409C15.5874 12.715 15.9797 13.0161 16.4224 13.2233C16.8651 13.4305 17.3476 13.5389 17.8364 13.5409H21.8182L21.4773 14.4409C21.2256 15.1083 21.1382 15.8264 21.2224 16.5346C21.3066 17.2428 21.56 17.9204 21.9611 18.5101C22.3623 19.0998 22.8995 19.5843 23.5272 19.9227C24.155 20.2612 24.8551 20.4436 25.5682 20.4546C25.8328 20.4567 26.0923 20.3817 26.3151 20.2388C26.5379 20.096 26.7142 19.8914 26.8227 19.65L29.8773 12.75C29.9468 12.5997 29.9884 12.438 30 12.2728V1.36366C30 1.00201 29.8563 0.655159 29.6006 0.399428C29.3449 0.143696 28.998 2.79469e-05 28.6364 2.79469e-05ZM27.2727 11.9046L24.7773 17.5364C24.5337 17.4039 24.3238 17.2173 24.1636 16.9909C24.0032 16.7638 23.9017 16.5003 23.8684 16.2241C23.835 15.948 23.8709 15.6679 23.9727 15.4091L24.4909 14.0455C24.6272 13.6918 24.6737 13.3099 24.6261 12.9338C24.5785 12.5578 24.4383 12.1995 24.2182 11.8909C24.0014 11.5836 23.7131 11.3336 23.3781 11.1625C23.0431 10.9915 22.6715 10.9045 22.2955 10.9091H17.8091C17.7185 10.9094 17.6289 10.89 17.5465 10.8523C17.4642 10.8147 17.3909 10.7596 17.3318 10.6909C17.226 10.5455 17.1819 10.3642 17.2091 10.1864L18.4636 3.36821C18.4578 3.2837 18.4699 3.1989 18.4991 3.11939C18.5284 3.03989 18.5741 2.96748 18.6334 2.90693C18.6926 2.84639 18.7641 2.79908 18.8429 2.76812C18.9218 2.73716 19.0063 2.72325 19.0909 2.7273H27.2727V11.9046ZM12.1909 16.4318H8.25L8.59091 15.5318C8.83895 14.8606 8.92129 14.1394 8.83093 13.4296C8.74057 12.7197 8.48018 12.0422 8.07188 11.4545C7.66359 10.8668 7.11946 10.3864 6.48573 10.054C5.852 9.72167 5.14741 9.54721 4.43182 9.54548C4.16719 9.54339 3.90767 9.61835 3.68491 9.7612C3.46215 9.90406 3.28576 10.1087 3.17727 10.35L0.122727 17.25C0.0445845 17.4214 0.00279724 17.6071 0 17.7955V28.7046C0 29.0662 0.143668 29.4131 0.3994 29.6688C0.655131 29.9245 1.00198 30.0682 1.36364 30.0682H10.9091C11.6898 30.0714 12.4468 29.8 13.0476 29.3014C13.6483 28.8028 14.0547 28.1089 14.1955 27.3409L15.45 20.5228C15.5367 20.043 15.5169 19.55 15.392 19.0787C15.2671 18.6074 15.0402 18.1694 14.7273 17.7955C14.4316 17.3948 14.0507 17.0647 13.6122 16.8289C13.1736 16.5931 12.6882 16.4575 12.1909 16.4318ZM11.5364 26.7682C11.5129 26.9151 11.4358 27.0481 11.3199 27.1413C11.204 27.2345 11.0576 27.2814 10.9091 27.2728H2.72727V18.0955L5.22273 12.4637C5.46628 12.5962 5.6762 12.7828 5.83636 13.0091C5.99684 13.2363 6.09831 13.4998 6.13163 13.7759C6.16496 14.052 6.1291 14.3321 6.02727 14.5909L5.50909 15.9546C5.37277 16.3082 5.32633 16.6902 5.37393 17.0662C5.42152 17.4422 5.56168 17.8006 5.78182 18.1091C5.99557 18.4215 6.28256 18.6768 6.61772 18.8527C6.95289 19.0286 7.32603 19.1198 7.70455 19.1182H12.1909C12.2815 19.118 12.3711 19.1373 12.4535 19.175C12.5358 19.2127 12.6091 19.2677 12.6682 19.3364C12.774 19.4818 12.8182 19.6631 12.7909 19.8409L11.5364 26.7682Z" fill="#383838"/>
</svg>
