<svg width="30" height="28" viewBox="0 0 30 28" fill="none" xmlns="http://www.w3.org/2000/svg">
<path d="M18.2143 0C17.3618 0 16.5442 0.338647 15.9414 0.941443C15.3386 1.54424 15 2.3618 15 3.21429V7.5C15.0001 8.16462 15.2062 8.81287 15.59 9.3555C15.9737 9.89813 16.5162 10.3085 17.1429 10.53V12.8571C17.1429 13.0607 17.201 13.2601 17.3103 13.4319C17.4196 13.6036 17.5755 13.7407 17.7599 13.827C17.9443 13.9134 18.1494 13.9454 18.3513 13.9194C18.5533 13.8933 18.7436 13.8103 18.9 13.68L22.4571 10.7143H26.7857C27.6382 10.7143 28.4558 10.3756 29.0586 9.77284C29.6614 9.17005 30 8.35248 30 7.5V3.21429C30 2.3618 29.6614 1.54424 29.0586 0.941443C28.4558 0.338647 27.6382 0 26.7857 0H18.2143ZM17.1429 3.21429C17.1429 2.93012 17.2557 2.6576 17.4567 2.45667C17.6576 2.25574 17.9301 2.14286 18.2143 2.14286H26.7857C27.0699 2.14286 27.3424 2.25574 27.5433 2.45667C27.7443 2.6576 27.8571 2.93012 27.8571 3.21429V7.5C27.8571 7.78416 27.7443 8.05668 27.5433 8.25761C27.3424 8.45855 27.0699 8.57143 26.7857 8.57143H22.0714C21.8208 8.57154 21.5782 8.6595 21.3857 8.82L19.2857 10.5686V9.64286C19.2857 9.3587 19.1728 9.08617 18.9719 8.88524C18.771 8.68431 18.4984 8.57143 18.2143 8.57143C17.9301 8.57143 17.6576 8.45855 17.4567 8.25761C17.2557 8.05668 17.1429 7.78416 17.1429 7.5V3.21429ZM4.28571 10.7143C4.28571 9.57764 4.73724 8.48755 5.54097 7.68383C6.3447 6.8801 7.43479 6.42857 8.57143 6.42857C9.70807 6.42857 10.7982 6.8801 11.6019 7.68383C12.4056 8.48755 12.8571 9.57764 12.8571 10.7143C12.8571 11.8509 12.4056 12.941 11.6019 13.7447C10.7982 14.5485 9.70807 15 8.57143 15C7.43479 15 6.3447 14.5485 5.54097 13.7447C4.73724 12.941 4.28571 11.8509 4.28571 10.7143ZM8.57143 8.57143C8.00311 8.57143 7.45806 8.79719 7.0562 9.19906C6.65434 9.60092 6.42857 10.146 6.42857 10.7143C6.42857 11.2826 6.65434 11.8277 7.0562 12.2295C7.45806 12.6314 8.00311 12.8571 8.57143 12.8571C9.13975 12.8571 9.68479 12.6314 10.0867 12.2295C10.4885 11.8277 10.7143 11.2826 10.7143 10.7143C10.7143 10.146 10.4885 9.60092 10.0867 9.19906C9.68479 8.79719 9.13975 8.57143 8.57143 8.57143ZM3.21429 17.1429H13.9286C14.7811 17.1429 15.5986 17.4815 16.2014 18.0843C16.8042 18.6871 17.1429 19.5047 17.1429 20.3571C17.1429 22.7486 16.1593 24.6643 14.5457 25.9607C12.9579 27.2357 10.8279 27.8571 8.57143 27.8571C6.315 27.8571 4.185 27.2357 2.59714 25.9607C0.985714 24.6643 0 22.7486 0 20.3571C0 19.5047 0.338647 18.6871 0.941443 18.0843C1.54424 17.4815 2.3618 17.1429 3.21429 17.1429ZM13.9286 19.2857H3.21429C2.93012 19.2857 2.6576 19.3986 2.45667 19.5995C2.25574 19.8005 2.14286 20.073 2.14286 20.3571C2.14286 22.1079 2.83929 23.4064 3.93857 24.2893C5.06571 25.1936 6.68571 25.7143 8.57143 25.7143C10.4571 25.7143 12.0771 25.1936 13.2043 24.2893C14.3036 23.4064 15 22.1079 15 20.3571C15 20.073 14.8871 19.8005 14.6862 19.5995C14.4853 19.3986 14.2127 19.2857 13.9286 19.2857Z" fill="#383838"/>
</svg>
