<svg width="27" height="38" viewBox="0 0 27 38" fill="none" xmlns="http://www.w3.org/2000/svg">
<path d="M21.75 38L21.75 28.8725L25.9425 33.065L27 32L21 26L15 32L16.0575 33.0575L20.25 28.8725L20.25 38L21.75 38Z" fill="white"/>
<path fill-rule="evenodd" clip-rule="evenodd" d="M6.01885 6.01884C6.51113 5.52656 7.17881 5.25 7.875 5.25H18.375C19.0712 5.25 19.7389 5.52656 20.2312 6.01884C20.7234 6.51113 21 7.17881 21 7.875V10.5C21 11.1962 20.7234 11.8639 20.2312 12.3562C19.7389 12.8484 19.0712 13.125 18.375 13.125H7.875C7.17881 13.125 6.51113 12.8484 6.01885 12.3562C5.52656 11.8639 5.25 11.1962 5.25 10.5V7.875C5.25 7.17881 5.52656 6.51113 6.01885 6.01884ZM18.375 7.875H7.875V10.5H18.375V7.875ZM5.25 0H21C22.3924 0 23.7277 0.553123 24.7123 1.53769C25.6969 2.52226 26.25 3.85761 26.25 5.25V25.2399C25.4897 24.5412 24.6017 23.9792 23.625 23.5929V5.25C23.625 4.55381 23.3484 3.88613 22.8562 3.39384C22.3639 2.90156 21.6962 2.625 21 2.625H5.25C4.55381 2.625 3.88613 2.90156 3.39385 3.39384C2.90156 3.88613 2.625 4.55381 2.625 5.25V28.8671H12.4156C12.1466 29.6937 12.0008 30.576 12 31.4921H2.625V31.5C2.625 32.1962 2.90156 32.8639 3.39385 33.3562C3.88613 33.8484 4.55381 34.125 5.25 34.125H12.4131C12.7249 35.0865 13.2035 35.9728 13.8147 36.75H5.25C3.85761 36.75 2.52225 36.1969 1.53769 35.2123C0.553123 34.2277 0 32.8924 0 31.5V5.25C0 3.85761 0.553123 2.52226 1.53769 1.53769C2.52225 0.553123 3.85761 0 5.25 0Z" fill="white"/>
</svg>
