<svg width="84" height="63" viewBox="0 0 84 63" fill="none" xmlns="http://www.w3.org/2000/svg">
<path d="M29.5007 39.3069C19.7507 39.3069 0.333984 44.4385 0.333984 54.6578V62.3332H58.6673V54.6578C58.6673 44.4385 39.2506 39.3069 29.5007 39.3069ZM10.084 53.5613C13.584 51.0174 22.0423 48.0788 29.5007 48.0788C36.959 48.0788 45.4173 51.0174 48.9173 53.5613H10.084ZM29.5007 31.6314C37.5423 31.6314 44.084 24.7455 44.084 16.2806C44.084 7.81565 37.5423 0.929688 29.5007 0.929688C21.459 0.929688 14.9173 7.81565 14.9173 16.2806C14.9173 24.7455 21.459 31.6314 29.5007 31.6314ZM29.5007 9.70162C32.959 9.70162 35.7506 12.6402 35.7506 16.2806C35.7506 19.9209 32.959 22.8595 29.5007 22.8595C26.0423 22.8595 23.2507 19.9209 23.2507 16.2806C23.2507 12.6402 26.0423 9.70162 29.5007 9.70162ZM58.834 39.57C63.6673 43.2543 67.0006 48.1665 67.0006 54.6578V62.3332H83.6673V54.6578C83.6673 45.7981 69.084 40.7543 58.834 39.57ZM54.5006 31.6314C62.5423 31.6314 69.084 24.7455 69.084 16.2806C69.084 7.81565 62.5423 0.929688 54.5006 0.929688C52.2506 0.929688 50.1673 1.49986 48.2506 2.46477C50.8756 6.36828 52.4173 11.149 52.4173 16.2806C52.4173 21.4121 50.8756 26.1928 48.2506 30.0964C50.1673 31.0613 52.2506 31.6314 54.5006 31.6314Z" fill="#E5E5E5"/>
</svg>