<svg width="68" height="95" viewBox="0 0 68 95" fill="none" xmlns="http://www.w3.org/2000/svg">
<path fill-rule="evenodd" clip-rule="evenodd" d="M15.5471 15.0471C16.7778 13.8164 18.447 13.125 20.1875 13.125H46.4375C48.178 13.125 49.8472 13.8164 51.0779 15.0471C52.3086 16.2778 53 17.947 53 19.6875V26.25C53 27.9905 52.3086 29.6597 51.0779 30.8904C49.8472 32.1211 48.178 32.8125 46.4375 32.8125H20.1875C18.447 32.8125 16.7778 32.1211 15.5471 30.8904C14.3164 29.6597 13.625 27.9905 13.625 26.25V19.6875C13.625 17.947 14.3164 16.2778 15.5471 15.0471ZM46.4375 19.6875H20.1875V26.25H46.4375V19.6875ZM13.625 0H53C56.481 0 59.8194 1.38281 62.2808 3.84422C64.7422 6.30564 66.125 9.64403 66.125 13.125V63.0999C64.2241 61.353 62.0042 59.9479 59.5625 58.9821V13.125C59.5625 11.3845 58.8711 9.71532 57.6404 8.48461C56.4097 7.2539 54.7405 6.5625 53 6.5625H13.625C11.8845 6.5625 10.2153 7.2539 8.98461 8.48461C7.75391 9.71532 7.0625 11.3845 7.0625 13.125V72.1678H31.5391C30.8665 74.2343 30.5021 76.4399 30.5 78.7303H7.0625V78.75C7.0625 80.4905 7.75391 82.1597 8.98461 83.3904C10.2153 84.6211 11.8845 85.3125 13.625 85.3125H31.5327C32.3124 87.7162 33.5088 89.9321 35.0367 91.875H13.625C10.144 91.875 6.80564 90.4922 4.34422 88.0308C1.88281 85.5694 0.5 82.231 0.5 78.75V13.125C0.5 9.64403 1.88281 6.30564 4.34422 3.84422C6.80564 1.38281 10.144 0 13.625 0Z" fill="#D9D9D9"/>
<path d="M51.125 65L51.125 87.8187L40.6438 77.3375L38 80L53 95L68 80L65.3563 77.3562L54.875 87.8187L54.875 65L51.125 65Z" fill="#D9D9D9"/>
</svg>