
  <svg width="67" height="92" viewBox="0 0 67 92" fill="none" xmlns="http://www.w3.org/2000/svg">
    <path
      d="M20.1875 13.125C18.447 13.125 16.7778 13.8164 15.5471 15.0471C14.3164 16.2778 13.625 17.947 13.625 19.6875V26.25C13.625 27.9905 14.3164 29.6597 15.5471 30.8904C16.7778 32.1211 18.447 32.8125 20.1875 32.8125H46.4375C48.178 32.8125 49.8472 32.1211 51.0779 30.8904C52.3086 29.6597 53 27.9905 53 26.25V19.6875C53 17.947 52.3086 16.2778 51.0779 15.0471C49.8472 13.8164 48.178 13.125 46.4375 13.125H20.1875ZM20.1875 19.6875H46.4375V26.25H20.1875V19.6875ZM53 0H13.625C10.144 0 6.80564 1.38281 4.34422 3.84422C1.88281 6.30564 0.5 9.64403 0.5 13.125V78.75C0.5 82.231 1.88281 85.5694 4.34422 88.0308C6.80564 90.4922 10.144 91.875 13.625 91.875H62.8438C63.714 91.875 64.5486 91.5293 65.1639 90.914C65.7793 90.2986 66.125 89.464 66.125 88.5938C66.125 87.7235 65.7793 86.8889 65.1639 86.2736C64.5486 85.6582 63.714 85.3125 62.8438 85.3125H13.625C11.8845 85.3125 10.2153 84.6211 8.98461 83.3904C7.75391 82.1597 7.0625 80.4905 7.0625 78.75V78.7303H62.8438C63.714 78.7303 64.5486 78.3846 65.1639 77.7693C65.7793 77.1539 66.125 76.3193 66.125 75.4491V13.125C66.125 9.64403 64.7422 6.30564 62.2808 3.84422C59.8194 1.38281 56.481 0 53 0ZM7.0625 72.1678V13.125C7.0625 11.3845 7.75391 9.71532 8.98461 8.48461C10.2153 7.2539 11.8845 6.5625 13.625 6.5625H53C54.7405 6.5625 56.4097 7.2539 57.6404 8.48461C58.8711 9.71532 59.5625 11.3845 59.5625 13.125V72.1678H7.0625Z"
      fill="#D9D9D9"
    />
  </svg>

