<svg width="51" height="90" viewBox="0 0 51 90" fill="none" xmlns="http://www.w3.org/2000/svg">
<path fill-rule="evenodd" clip-rule="evenodd" d="M14.4844 23.5C11.7294 25.565 10.4844 28.04 10.4844 30.35C10.4844 32.665 11.7294 35.14 14.4844 37.21C17.2444 39.28 21.2844 40.71 25.9594 40.71C27.2855 40.71 28.5572 41.2368 29.4949 42.1745C30.4326 43.1121 30.9594 44.3839 30.9594 45.71C30.9594 47.0361 30.4326 48.3079 29.4949 49.2455C28.5572 50.1832 27.2855 50.71 25.9594 50.71C19.3294 50.71 13.1344 48.7 8.48437 45.21C3.83437 41.72 0.484375 36.52 0.484375 30.355C0.484375 24.185 3.83437 18.985 8.48437 15.495C13.1344 12.01 19.3344 10 25.9594 10C36.2244 10 45.9294 14.915 49.7894 23.1C50.0694 23.6942 50.2297 24.3378 50.261 24.994C50.2923 25.6501 50.1941 26.306 49.9719 26.9243C49.7498 27.5425 49.408 28.1109 48.9662 28.597C48.5244 29.0831 47.9911 29.4775 47.3969 29.7575C46.8026 30.0375 46.1591 30.1978 45.5029 30.2291C44.8467 30.2605 44.1908 30.1622 43.5726 29.9401C42.9544 29.7179 42.386 29.3761 41.8999 28.9343C41.4138 28.4925 41.0194 27.9592 40.7394 27.365C38.9894 23.63 33.5294 20 25.9644 20C21.2894 20 17.2444 21.43 14.4844 23.5Z" fill="#E5E5E5"/>
<path fill-rule="evenodd" clip-rule="evenodd" d="M35.7845 67.915C38.5395 65.85 39.7795 63.375 39.7795 61.065C39.7795 58.75 38.5395 56.27 35.7795 54.205C33.0245 52.135 28.9795 50.705 24.3095 50.705C22.9834 50.705 21.7117 50.1782 20.774 49.2405C19.8363 48.3028 19.3095 47.0311 19.3095 45.705C19.3095 44.3789 19.8363 43.1071 20.774 42.1695C21.7117 41.2318 22.9834 40.705 24.3095 40.705C30.9395 40.705 37.1345 42.715 41.7845 46.205C46.4345 49.695 49.7795 54.895 49.7795 61.06C49.7795 67.225 46.4345 72.43 41.7795 75.915C37.1295 79.405 30.9395 81.415 24.3095 81.415C14.0445 81.415 4.33451 76.5 0.479512 68.31C-0.0860623 67.1106 -0.151996 65.7356 0.296216 64.4875C0.744428 63.2395 1.67007 62.2206 2.86951 61.655C4.06895 61.0894 5.44394 61.0235 6.692 61.4717C7.94005 61.9199 8.95894 62.8456 9.52451 64.045C11.2845 67.785 16.7445 71.415 24.3095 71.415C28.9845 71.415 33.0245 69.985 35.7845 67.915ZM24.9995 0C26.3256 0 27.5974 0.526784 28.535 1.46447C29.4727 2.40215 29.9995 3.67392 29.9995 5V10C29.9995 11.3261 29.4727 12.5979 28.535 13.5355C27.5974 14.4732 26.3256 15 24.9995 15C23.6734 15 22.4017 14.4732 21.464 13.5355C20.5263 12.5979 19.9995 11.3261 19.9995 10V5C19.9995 3.67392 20.5263 2.40215 21.464 1.46447C22.4017 0.526784 23.6734 0 24.9995 0Z" fill="#E5E5E5"/>
<path fill-rule="evenodd" clip-rule="evenodd" d="M25 75C26.3261 75 27.5979 75.5268 28.5355 76.4645C29.4732 77.4021 30 78.6739 30 80V85C30 86.3261 29.4732 87.5979 28.5355 88.5355C27.5979 89.4732 26.3261 90 25 90C23.6739 90 22.4021 89.4732 21.4645 88.5355C20.5268 87.5979 20 86.3261 20 85V80C20 78.6739 20.5268 77.4021 21.4645 76.4645C22.4021 75.5268 23.6739 75 25 75Z" fill="#E5E5E5"/>
</svg>
