<svg width="325" height="50" viewBox="0 0 325 50" fill="none" xmlns="http://www.w3.org/2000/svg">
    <path
      d="M300 0C303.283 0 306.534 0.646645 309.567 1.90301C312.6 3.15938 315.356 5.00087 317.678 7.32233C319.999 9.6438 321.841 12.3998 323.097 15.4329C324.353 18.4661 325 21.717 325 25C325 28.283 324.353 31.5339 323.097 34.5671C321.841 37.6002 319.999 40.3562 317.678 42.6777C315.356 44.9991 312.6 46.8406 309.567 48.097C306.534 49.3534 303.283 50 300 50V38.8699C301.821 38.8699 303.625 38.5111 305.308 37.8141C306.991 37.1171 308.52 36.0954 309.807 34.8075C311.095 33.5195 312.117 31.9905 312.814 30.3078C313.511 28.625 313.87 26.8214 313.87 25C313.87 23.1786 313.511 21.375 312.814 19.6922C312.117 18.0095 311.095 16.4805 309.807 15.1925C308.52 13.9046 306.991 12.8829 305.308 12.1859C303.625 11.4889 301.821 11.1301 300 11.1301V0Z"
      fill="#D9D9D9"
    />
    <path
      d="M25 5C25 2.23857 27.2604 -0.0502716 29.9668 0.498342C31.538 0.816852 33.0788 1.28653 34.5671 1.90301C37.6002 3.15938 40.3562 5.00087 42.6777 7.32233C44.9991 9.6438 46.8406 12.3998 48.097 15.4329C49.3534 18.4661 50 21.717 50 25C50 28.283 49.3534 31.5339 48.097 34.5671C46.8406 37.6002 44.9991 40.3562 42.6777 42.6777C40.3562 44.9991 37.6002 46.8406 34.5671 48.097C33.0788 48.7135 31.538 49.1831 29.9668 49.5017C27.2604 50.0503 25 47.7614 25 45L25 43.8699C25 41.1085 27.3085 38.9524 29.8924 37.9784C30.0316 37.9259 30.1701 37.8711 30.3078 37.8141C31.9905 37.1171 33.5195 36.0954 34.8075 34.8075C36.0954 33.5195 37.1171 31.9905 37.8141 30.3078C38.5111 28.625 38.8699 26.8214 38.8699 25C38.8699 23.1786 38.5111 21.375 37.8141 19.6922C37.1171 18.0095 36.0954 16.4805 34.8075 15.1925C33.5195 13.9046 31.9905 12.8829 30.3078 12.1859C30.1701 12.1289 30.0316 12.0741 29.8924 12.0216C27.3085 11.0476 25 8.89155 25 6.13012V5Z"
      fill="#D9D9D9"
    />
    <rect x="25" width="281" height="11" rx="5" fill="#D9D9D9" />
    <rect x="25" y="39" width="281" height="11" rx="5" fill="#D9D9D9" />
  </svg>