<svg width="175" height="50" viewBox="0 0 175 50" fill="none" xmlns="http://www.w3.org/2000/svg">
    <path
      d="M150 0C153.283 0 156.534 0.646645 159.567 1.90301C162.6 3.15938 165.356 5.00087 167.678 7.32233C169.999 9.6438 171.841 12.3998 173.097 15.4329C174.353 18.4661 175 21.717 175 25C175 28.283 174.353 31.5339 173.097 34.5671C171.841 37.6002 169.999 40.3562 167.678 42.6777C165.356 44.9991 162.6 46.8406 159.567 48.097C156.534 49.3534 153.283 50 150 50V38.8699C151.821 38.8699 153.625 38.5111 155.308 37.8141C156.991 37.1171 158.52 36.0954 159.807 34.8075C161.095 33.5195 162.117 31.9905 162.814 30.3078C163.511 28.625 163.87 26.8214 163.87 25C163.87 23.1786 163.511 21.375 162.814 19.6922C162.117 18.0095 161.095 16.4805 159.807 15.1925C158.52 13.9046 156.991 12.8829 155.308 12.1859C153.625 11.4889 151.821 11.1301 150 11.1301V0Z"
      fill="#D9D9D9"
    />
    <path
      d="M25 5C25 2.23857 27.2604 -0.0502701 29.9668 0.498341C31.538 0.816853 33.0788 1.28653 34.5671 1.90301C37.6002 3.15938 40.3562 5.00087 42.6777 7.32233C44.9991 9.6438 46.8406 12.3998 48.097 15.4329C49.3534 18.4661 50 21.717 50 25C50 28.283 49.3534 31.5339 48.097 34.5671C46.8406 37.6002 44.9991 40.3562 42.6777 42.6777C40.3562 44.9991 37.6002 46.8406 34.5671 48.097C33.0788 48.7135 31.538 49.1831 29.9668 49.5017C27.2604 50.0503 25 47.7614 25 45V43.8699C25 41.1085 27.3085 38.9524 29.8924 37.9784C30.0316 37.9259 30.1701 37.8711 30.3078 37.8141C31.9905 37.1171 33.5195 36.0954 34.8075 34.8075C36.0954 33.5195 37.1171 31.9905 37.8141 30.3078C38.5111 28.625 38.8699 26.8214 38.8699 25C38.8699 23.1786 38.5111 21.375 37.8141 19.6922C37.1171 18.0095 36.0954 16.4805 34.8075 15.1925C33.5195 13.9046 31.9905 12.8829 30.3078 12.1859C30.1701 12.1289 30.0316 12.0741 29.8924 12.0216C27.3085 11.0476 25 8.89154 25 6.13012V5Z"
      fill="#D9D9D9"
    />
    <rect x="25" width="131" height="11" rx="5" fill="#D9D9D9" />
    <rect x="25" y="39" width="131" height="11" rx="5" fill="#D9D9D9" />
  </svg>