<svg width="125" height="50" viewBox="0 0 125 50" fill="none" xmlns="http://www.w3.org/2000/svg">
    <path
      d="M100 0C103.283 0 106.534 0.646645 109.567 1.90301C112.6 3.15938 115.356 5.00087 117.678 7.32233C119.999 9.6438 121.841 12.3998 123.097 15.4329C124.353 18.4661 125 21.717 125 25C125 28.283 124.353 31.5339 123.097 34.5671C121.841 37.6002 119.999 40.3562 117.678 42.6777C115.356 44.9991 112.6 46.8406 109.567 48.097C106.534 49.3534 103.283 50 100 50V38.8699C101.821 38.8699 103.625 38.5111 105.308 37.8141C106.991 37.1171 108.52 36.0954 109.807 34.8075C111.095 33.5195 112.117 31.9905 112.814 30.3078C113.511 28.625 113.87 26.8214 113.87 25C113.87 23.1786 113.511 21.375 112.814 19.6922C112.117 18.0095 111.095 16.4805 109.807 15.1925C108.52 13.9046 106.991 12.8829 105.308 12.1859C103.625 11.4889 101.821 11.1301 100 11.1301V0Z"
      fill="#D9D9D9"
    />
    <path
      d="M25 5C25 2.23857 27.2604 -0.0502701 29.9668 0.498341C31.538 0.816853 33.0788 1.28653 34.5671 1.90301C37.6002 3.15938 40.3562 5.00087 42.6777 7.32233C44.9991 9.6438 46.8406 12.3998 48.097 15.4329C49.3534 18.4661 50 21.717 50 25C50 28.283 49.3534 31.5339 48.097 34.5671C46.8406 37.6002 44.9991 40.3562 42.6777 42.6777C40.3562 44.9991 37.6002 46.8406 34.5671 48.097C33.0788 48.7135 31.538 49.1831 29.9668 49.5017C27.2604 50.0503 25 47.7614 25 45V43.8699C25 41.1085 27.3085 38.9524 29.8924 37.9784C30.0316 37.9259 30.1701 37.8711 30.3078 37.8141C31.9905 37.1171 33.5195 36.0954 34.8075 34.8075C36.0954 33.5195 37.1171 31.9905 37.8141 30.3078C38.5111 28.625 38.8699 26.8214 38.8699 25C38.8699 23.1786 38.5111 21.375 37.8141 19.6922C37.1171 18.0095 36.0954 16.4805 34.8075 15.1925C33.5195 13.9046 31.9905 12.8829 30.3078 12.1859C30.1701 12.1289 30.0316 12.0741 29.8924 12.0216C27.3085 11.0476 25 8.89154 25 6.13012V5Z"
      fill="#D9D9D9"
    />
    <rect x="25" width="80" height="11" rx="5" fill="#D9D9D9" />
    <rect x="25" y="39" width="82" height="11" rx="5" fill="#D9D9D9" />
  </svg>