<svg width="84" height="80" viewBox="0 0 84 80" fill="none" xmlns="http://www.w3.org/2000/svg">
<path d="M53.4757 29.6667C57.5007 29.6667 60.7673 32.9333 60.7673 36.9583V50.5H60.7507V51.5417C60.7507 52.3705 60.4214 53.1653 59.8354 53.7514C59.2493 54.3374 58.4545 54.6667 57.6257 54.6667C56.7969 54.6667 56.002 54.3374 55.4159 53.7514C54.8299 53.1653 54.5007 52.3705 54.5007 51.5417V42.1667H54.5173V36.9583C54.5173 36.6821 54.4076 36.4171 54.2122 36.2218C54.0169 36.0264 53.7519 35.9167 53.4757 35.9167H30.5507C30.2744 35.9167 30.0094 36.0264 29.8141 36.2218C29.6187 36.4171 29.509 36.6821 29.509 36.9583V50.5H29.5007V51.5417C29.5007 52.3705 29.1714 53.1653 28.5854 53.7514C27.9993 54.3374 27.2045 54.6667 26.3757 54.6667C25.5469 54.6667 24.752 54.3374 24.1659 53.7514C23.5799 53.1653 23.2507 52.3705 23.2507 51.5417V42.1667H23.259V36.9583C23.259 32.9333 26.5215 29.6667 30.5507 29.6667H53.4757ZM77.4173 36.9583V51.5417C77.4173 52.3705 77.7466 53.1653 78.3326 53.7514C78.9187 54.3374 79.7135 54.6667 80.5423 54.6667C81.3711 54.6667 82.166 54.3374 82.752 53.7514C83.3381 53.1653 83.6673 52.3705 83.6673 51.5417V36.9583C83.6673 35.0245 82.8991 33.1698 81.5316 31.8023C80.1642 30.4349 78.3095 29.6667 76.3757 29.6667H62.3132C63.7423 31.3958 64.6757 33.55 64.8882 35.9167H76.3757C76.6519 35.9167 76.9169 36.0264 77.1122 36.2218C77.3076 36.4171 77.4173 36.6821 77.4173 36.9583ZM0.333984 51.5417C0.333984 52.3705 0.663224 53.1653 1.24928 53.7514C1.83533 54.3374 2.63018 54.6667 3.45898 54.6667C4.28779 54.6667 5.08264 54.3374 5.66869 53.7514C6.25475 53.1653 6.58398 52.3705 6.58398 51.5417V36.9583C6.58398 36.6821 6.69373 36.4171 6.88908 36.2218C7.08443 36.0264 7.34938 35.9167 7.62565 35.9167H19.1382C19.3454 33.621 20.2431 31.442 21.7132 29.6667H7.62565C5.69178 29.6667 3.83712 30.4349 2.46966 31.8023C1.10221 33.1698 0.333984 35.0245 0.333984 36.9583V51.5417ZM42.0007 0.5C45.3159 0.5 48.4953 1.81696 50.8395 4.16117C53.1837 6.50537 54.5007 9.68479 54.5007 13C54.5007 16.3152 53.1837 19.4946 50.8395 21.8388C48.4953 24.183 45.3159 25.5 42.0007 25.5C38.6854 25.5 35.506 24.183 33.1618 21.8388C30.8176 19.4946 29.5007 16.3152 29.5007 13C29.5007 9.68479 30.8176 6.50537 33.1618 4.16117C35.506 1.81696 38.6854 0.5 42.0007 0.5ZM42.0007 6.75C40.3431 6.75 38.7533 7.40848 37.5812 8.58058C36.4091 9.75268 35.7507 11.3424 35.7507 13C35.7507 14.6576 36.4091 16.2473 37.5812 17.4194C38.7533 18.5915 40.3431 19.25 42.0007 19.25C43.6583 19.25 45.248 18.5915 46.4201 17.4194C47.5922 16.2473 48.2507 14.6576 48.2507 13C48.2507 11.3424 47.5922 9.75268 46.4201 8.58058C45.248 7.40848 43.6583 6.75 42.0007 6.75ZM69.084 4.66667C71.8467 4.66667 74.4962 5.76413 76.4497 7.71764C78.4032 9.67114 79.5007 12.3207 79.5007 15.0833C79.5007 17.846 78.4032 20.4955 76.4497 22.449C74.4962 24.4025 71.8467 25.5 69.084 25.5C66.3213 25.5 63.6718 24.4025 61.7183 22.449C59.7648 20.4955 58.6673 17.846 58.6673 15.0833C58.6673 12.3207 59.7648 9.67114 61.7183 7.71764C63.6718 5.76413 66.3213 4.66667 69.084 4.66667ZM69.084 10.9167C67.9789 10.9167 66.9191 11.3557 66.1377 12.1371C65.3563 12.9185 64.9173 13.9783 64.9173 15.0833C64.9173 16.1884 65.3563 17.2482 66.1377 18.0296C66.9191 18.811 67.9789 19.25 69.084 19.25C70.1891 19.25 71.2489 18.811 72.0303 18.0296C72.8117 17.2482 73.2507 16.1884 73.2507 15.0833C73.2507 13.9783 72.8117 12.9185 72.0303 12.1371C71.2489 11.3557 70.1891 10.9167 69.084 10.9167ZM14.9173 4.66667C17.68 4.66667 20.3295 5.76413 22.283 7.71764C24.2365 9.67114 25.334 12.3207 25.334 15.0833C25.334 17.846 24.2365 20.4955 22.283 22.449C20.3295 24.4025 17.68 25.5 14.9173 25.5C12.1546 25.5 9.50513 24.4025 7.55162 22.449C5.59812 20.4955 4.50065 17.846 4.50065 15.0833C4.50065 12.3207 5.59812 9.67114 7.55162 7.71764C9.50513 5.76413 12.1546 4.66667 14.9173 4.66667ZM14.9173 10.9167C13.8123 10.9167 12.7524 11.3557 11.971 12.1371C11.1896 12.9185 10.7507 13.9783 10.7507 15.0833C10.7507 16.1884 11.1896 17.2482 11.971 18.0296C12.7524 18.811 13.8123 19.25 14.9173 19.25C16.0224 19.25 17.0822 18.811 17.8636 18.0296C18.645 17.2482 19.084 16.1884 19.084 15.0833C19.084 13.9783 18.645 12.9185 17.8636 12.1371C17.0822 11.3557 16.0224 10.9167 14.9173 10.9167ZM3.45898 58.8333C2.63018 58.8333 1.83533 59.1626 1.24928 59.7486C0.663224 60.3347 0.333984 61.1295 0.333984 61.9583V64.0417C0.333984 68.1857 1.98019 72.16 4.91044 75.0902C7.8407 78.0205 11.815 79.6667 15.959 79.6667H68.0423C72.1863 79.6667 76.1606 78.0205 79.0909 75.0902C82.0211 72.16 83.6673 68.1857 83.6673 64.0417V61.9583C83.6673 61.1295 83.3381 60.3347 82.752 59.7486C82.166 59.1626 81.3711 58.8333 80.5423 58.8333H3.45898ZM15.959 73.4167C13.653 73.4166 11.4279 72.5666 9.70916 71.0293C7.9904 69.4919 6.89854 67.375 6.64232 65.0833H77.359C77.1028 67.375 76.0109 69.4919 74.2921 71.0293C72.5734 72.5666 70.3483 73.4166 68.0423 73.4167H15.959Z" fill="#D9D9D9"/>
</svg>
